<?xml version="1.0" standalone="no"?>
<!DOCTYPE svg PUBLIC "-//W3C//DTD SVG 20010904//EN"
 "http://www.w3.org/TR/2001/REC-SVG-20010904/DTD/svg10.dtd">
<svg version="1.0" xmlns="http://www.w3.org/2000/svg"
 width="512.000000pt" height="512.000000pt" viewBox="0 0 512.000000 512.000000"
 preserveAspectRatio="xMidYMid meet">

<g transform="translate(0.000000,512.000000) scale(0.100000,-0.100000)"
fill="#000000" stroke="none">
<path d="M2285 4679 c-630 -52 -1114 -283 -1205 -576 -25 -82 -25 -144 0 -226
84 -273 482 -480 1080 -564 176 -24 624 -24 800 0 603 84 995 290 1082 569
121 390 -406 732 -1226 798 -147 11 -383 11 -531 -1z m520 -199 c433 -37 799
-158 964 -319 119 -116 119 -226 1 -341 -297 -289 -1158 -414 -1827 -264 -411
92 -684 266 -683 436 1 51 34 114 90 168 236 230 870 369 1455 320z"/>
<path d="M2345 4284 c-320 -32 -536 -84 -714 -173 -89 -45 -111 -69 -111 -121
0 -52 22 -76 108 -119 144 -72 318 -122 552 -158 143 -22 585 -25 725 -5 233
33 415 82 561 151 109 52 134 76 134 131 0 51 -22 76 -103 117 -236 118 -501
172 -882 178 -126 1 -248 1 -270 -1z m585 -219 c105 -16 298 -60 308 -70 10
-10 -5 -16 -104 -40 -194 -47 -311 -59 -574 -59 -263 0 -380 12 -574 59 -98
24 -114 30 -104 40 18 18 283 70 431 85 131 13 492 4 617 -15z"/>
<path d="M51 3076 c-43 -24 -50 -51 -51 -198 0 -75 5 -161 11 -190 17 -83 65
-173 128 -241 54 -58 58 -66 69 -136 17 -99 61 -188 131 -264 54 -58 58 -66
69 -136 34 -202 192 -369 390 -410 31 -6 168 -11 325 -12 l272 0 55 -77 c79
-109 272 -300 515 -507 116 -98 288 -246 383 -327 181 -155 200 -166 255 -137
11 7 116 93 232 193 116 99 270 230 341 291 239 203 417 381 507 508 l41 57
272 0 c161 0 295 5 326 11 198 41 356 208 390 410 11 69 16 78 69 136 31 34
68 85 83 115 27 57 56 157 56 196 0 16 21 47 59 87 107 115 141 217 141 428 0
151 -9 184 -55 205 -19 9 -156 12 -511 12 -553 0 -580 -3 -729 -75 -98 -47
-197 -129 -260 -215 l-36 -48 -82 43 c-128 68 -217 89 -372 89 -188 0 -320
-42 -459 -147 l-59 -44 -61 46 c-242 183 -597 199 -861 40 -37 -22 -68 -39
-69 -37 -2 2 -17 24 -35 50 -97 144 -260 250 -439 284 -104 20 -1005 20 -1041
0z m1011 -197 c126 -26 247 -111 320 -223 l38 -59 -35 -47 c-49 -66 -111 -201
-136 -295 -18 -65 -22 -107 -22 -225 0 -144 1 -155 49 -317 l6 -23 -209 0
c-233 0 -280 8 -352 60 -39 29 -101 111 -101 134 0 7 42 10 126 8 170 -4 214
16 214 96 0 80 -40 102 -188 102 -125 0 -189 15 -251 60 -39 29 -101 111 -101
134 0 7 44 10 130 8 l130 -3 30 30 c39 39 42 96 6 138 -24 27 -27 28 -158 34
-104 4 -143 9 -179 26 -113 51 -170 143 -177 285 l-4 88 405 0 c258 0 425 -4
459 -11z m3856 -77 c-7 -142 -64 -234 -177 -285 -36 -17 -75 -22 -179 -26
-131 -6 -134 -7 -158 -34 -36 -42 -33 -99 6 -138 l30 -30 130 3 c86 2 130 -1
130 -8 0 -23 -62 -105 -101 -134 -62 -45 -126 -60 -251 -60 -148 0 -188 -22
-188 -102 0 -80 44 -100 214 -96 84 2 126 -1 126 -8 0 -23 -62 -105 -101 -134
-72 -52 -119 -60 -354 -60 l-212 0 24 83 c75 258 33 539 -113 757 -53 79 -55
84 -43 114 21 49 128 150 197 185 116 58 127 60 596 60 l428 1 -4 -88z"/>
</g>
</svg>
