<?xml version="1.0" standalone="no"?>
<!DOCTYPE svg PUBLIC "-//W3C//DTD SVG 20010904//EN"
 "http://www.w3.org/TR/2001/REC-SVG-20010904/DTD/svg10.dtd">
<svg version="1.0" xmlns="http://www.w3.org/2000/svg"
 width="512.000000pt" height="512.000000pt" viewBox="0 0 512.000000 512.000000"
 preserveAspectRatio="xMidYMid meet">

<g transform="translate(0.000000,512.000000) scale(0.100000,-0.100000)"
fill="#000000" stroke="none">
<path d="M2210 5102 c-22 -12 -44 -35 -57 -62 -23 -44 -23 -46 -23 -537 l0
-492 -672 -3 c-642 -3 -674 -4 -705 -22 -17 -11 -41 -36 -52 -56 -20 -36 -21
-52 -21 -350 0 -345 2 -359 64 -403 29 -21 42 -22 254 -25 213 -3 222 -4 222
-23 0 -95 -62 -371 -112 -499 -35 -91 -33 -123 13 -149 35 -20 76 -7 99 31 49
81 129 391 146 566 l7 72 111 0 112 0 39 -41 c31 -31 161 -141 183 -155 6 -4
-19 -156 -45 -274 -90 -411 -291 -776 -546 -990 -107 -90 -158 -92 -239 -9
-53 55 -71 59 -152 34 -106 -32 -203 -10 -266 61 -16 19 -30 38 -30 42 0 4 26
20 58 36 115 57 227 139 335 246 97 97 107 110 107 143 0 46 -29 77 -70 77
-26 0 -44 -14 -108 -82 -120 -127 -272 -231 -422 -288 -78 -30 -92 -67 -59
-156 27 -72 128 -178 204 -213 60 -29 169 -38 244 -22 52 11 53 11 93 -24 85
-73 207 -84 309 -29 28 16 94 69 146 118 294 278 494 687 573 1173 l11 71 74
-34 c41 -19 78 -34 84 -34 8 0 11 -398 11 -1338 l0 -1338 23 -44 c40 -79 46
-80 407 -80 362 0 367 1 408 81 l22 44 -2 498 -3 499 -24 19 c-30 24 -72 24
-102 0 l-24 -19 -3 -486 -3 -486 -269 0 -270 0 0 1216 0 1216 23 -6 c75 -20
252 -29 360 -18 61 7 122 15 135 18 l22 6 0 -576 c0 -496 2 -581 15 -606 27
-52 106 -52 132 0 10 19 13 181 13 713 0 479 3 687 11 687 6 0 44 15 85 34 41
19 74 31 74 26 0 -5 11 -69 25 -143 83 -448 283 -836 569 -1104 47 -44 108
-92 136 -107 101 -55 223 -43 308 29 40 35 41 35 93 24 75 -16 184 -7 242 21
97 46 189 151 217 246 10 35 10 46 -5 73 -9 19 -29 37 -46 43 -76 26 -211 100
-284 155 -223 169 -385 418 -459 708 -24 93 -56 279 -56 324 0 19 9 20 223 23
211 3 224 4 253 25 62 44 64 58 64 399 0 286 -1 311 -20 349 -11 22 -34 49
-52 60 -32 19 -56 20 -705 23 l-673 3 0 492 c0 675 41 617 -430 617 -286 0
-319 -2 -350 -18z m620 -542 l0 -410 -270 0 -270 0 0 410 0 410 270 0 270 0 0
-410z m-1245 -765 c33 -90 111 -240 168 -325 27 -41 100 -124 161 -185 130
-129 225 -190 378 -243 93 -32 116 -36 235 -40 100 -3 150 0 209 13 153 34
302 112 422 220 53 48 62 62 62 90 0 22 -8 41 -22 55 -37 35 -68 26 -153 -44
-151 -126 -307 -186 -485 -186 -259 0 -490 135 -675 395 -54 75 -155 269 -155
296 0 17 9 19 104 19 l104 0 17 -52 c48 -152 172 -291 331 -371 159 -81 392
-79 554 3 153 78 277 217 325 368 l17 52 104 0 c92 0 104 -2 104 -17 0 -10
-23 -63 -50 -118 -27 -55 -50 -112 -50 -127 0 -54 60 -85 111 -58 21 12 97
157 134 255 l23 60 66 3 c38 2 66 -1 66 -7 0 -30 -33 -159 -59 -231 -60 -163
-146 -294 -283 -426 -187 -181 -414 -287 -678 -315 -313 -34 -658 83 -887 302
-188 179 -308 398 -348 637 l-7 43 67 -3 67 -3 23 -60z m-295 -37 c10 -48 23
-104 30 -125 21 -67 83 -206 117 -265 18 -31 33 -59 33 -62 0 -4 -143 -5 -317
-4 l-318 3 -3 273 -2 272 221 -2 222 -3 17 -87z m1698 30 c-101 -190 -329
-295 -538 -247 -126 29 -256 130 -318 247 l-33 62 461 0 461 0 -33 -62z m1300
-210 l-3 -273 -317 -3 c-175 -1 -318 0 -318 4 0 3 17 36 39 72 55 96 109 236
133 349 11 54 22 104 24 111 3 9 56 12 224 12 l220 0 -2 -272z m-534 -500 c19
-198 89 -454 166 -610 130 -259 345 -481 585 -604 41 -22 75 -42 75 -46 0 -4
-14 -23 -30 -42 -63 -71 -160 -93 -266 -61 -81 25 -99 21 -152 -34 -82 -85
-133 -82 -245 14 -205 175 -389 470 -486 780 -39 125 -83 324 -95 430 l-6 50
65 50 c36 27 86 71 112 97 l47 48 112 0 111 0 7 -72z"/>
</g>
</svg>
